<?xml version="1.0" encoding="UTF-8" standalone="no"?>
<!DOCTYPE svg PUBLIC "-//W3C//DTD SVG 1.1//EN"
 "http://www.w3.org/Graphics/SVG/1.1/DTD/svg11.dtd">
<!-- Generated by graphviz version 15.1.0 (20260618.0150)
 -->
<!-- Title: Phase0B Pages: 1 -->
<svg width="1216pt" height="1025pt"
 viewBox="0.00 0.00 1216.00 1025.00" xmlns="http://www.w3.org/2000/svg" xmlns:xlink="http://www.w3.org/1999/xlink">
<g id="graph0" class="graph" transform="scale(1 1) rotate(0) translate(25.2 999.95)">
<title>Phase0B</title>
<polygon fill="#ffffff" stroke="none" points="-25.2,25.2 -25.2,-999.95 1190.95,-999.95 1190.95,25.2 -25.2,25.2"/>
<text xml:space="preserve" text-anchor="middle" x="245" y="-953.65" font-family="Microsoft YaHei" font-size="18.00" fill="#0f172a">Phase 0B · 在最小 Agent Loop 上扩展证据驱动的人工闭环</text>
<g id="clust1" class="cluster">
<title>cluster_access</title>
<path fill="#eff6ff" stroke="#93c5fd" stroke-width="1.3" d="M124,-317C124,-317 277.75,-317 277.75,-317 283.75,-317 289.75,-323 289.75,-329 289.75,-329 289.75,-542 289.75,-542 289.75,-548 283.75,-554 277.75,-554 277.75,-554 124,-554 124,-554 118,-554 112,-548 112,-542 112,-542 112,-329 112,-329 112,-323 118,-317 124,-317"/>
<text xml:space="preserve" text-anchor="middle" x="176.62" y="-532.9" font-family="Microsoft YaHei" font-size="18.00" fill="#0f172a">① 接入与治理</text>
</g>
<g id="clust2" class="cluster">
<title>cluster_application</title>
<path fill="#f0f9ff" stroke="#7dd3fc" stroke-width="1.3" d="M318.75,-331C318.75,-331 498,-331 498,-331 504,-331 510,-337 510,-343 510,-343 510,-606 510,-606 510,-612 504,-618 498,-618 498,-618 318.75,-618 318.75,-618 312.75,-618 306.75,-612 306.75,-606 306.75,-606 306.75,-343 306.75,-343 306.75,-337 312.75,-331 318.75,-331"/>
<text xml:space="preserve" text-anchor="middle" x="362.38" y="-596.9" font-family="Microsoft YaHei" font-size="18.00" fill="#0f172a">② 应用编排</text>
</g>
<g id="clust3" class="cluster">
<title>cluster_runtime</title>
<path fill="#faf8ff" stroke="#c4b5fd" stroke-width="1.5" d="M537,-531C537,-531 718,-531 718,-531 724,-531 730,-537 730,-543 730,-543 730,-922 730,-922 730,-928 724,-934 718,-934 718,-934 537,-934 537,-934 531,-934 525,-928 525,-922 525,-922 525,-543 525,-543 525,-537 531,-531 537,-531"/>
<text xml:space="preserve" text-anchor="middle" x="609.88" y="-912.9" font-family="Microsoft YaHei" font-size="18.00" fill="#0f172a">③ Agent Runtime</text>
</g>
<g id="clust4" class="cluster">
<title>cluster_ports</title>
<path fill="#fdf4ff" stroke="#d8b4fe" stroke-width="1.3" stroke-dasharray="5,2" d="M757,-440C757,-440 906.5,-440 906.5,-440 912.5,-440 918.5,-446 918.5,-452 918.5,-452 918.5,-658 918.5,-658 918.5,-664 912.5,-670 906.5,-670 906.5,-670 757,-670 757,-670 751,-670 745,-664 745,-658 745,-658 745,-452 745,-452 745,-446 751,-440 757,-440"/>
<text xml:space="preserve" text-anchor="middle" x="786.75" y="-648.9" font-family="Microsoft YaHei" font-size="18.00" fill="#0f172a">④ Ports</text>
</g>
<g id="clust5" class="cluster">
<title>cluster_adapters</title>
<path fill="#f0fdfa" stroke="#5eead4" stroke-width="1.3" d="M947.5,-358C947.5,-358 1145.75,-358 1145.75,-358 1151.75,-358 1157.75,-364 1157.75,-370 1157.75,-370 1157.75,-663 1157.75,-663 1157.75,-669 1151.75,-675 1145.75,-675 1145.75,-675 947.5,-675 947.5,-675 941.5,-675 935.5,-669 935.5,-663 935.5,-663 935.5,-370 935.5,-370 935.5,-364 941.5,-358 947.5,-358"/>
<text xml:space="preserve" text-anchor="middle" x="993.75" y="-653.9" font-family="Microsoft YaHei" font-size="18.00" fill="#0f172a">⑤ Adapters</text>
</g>
<g id="clust6" class="cluster">
<title>cluster_closure</title>
<path fill="#f0fdf4" stroke="#4ade80" stroke-width="1.6" d="M138.88,-8C138.88,-8 901.25,-8 901.25,-8 907.25,-8 913.25,-14 913.25,-20 913.25,-20 913.25,-297 913.25,-297 913.25,-303 907.25,-309 901.25,-309 901.25,-309 138.88,-309 138.88,-309 132.88,-309 126.88,-303 126.88,-297 126.88,-297 126.88,-20 126.88,-20 126.88,-14 132.88,-8 138.88,-8"/>
<text xml:space="preserve" text-anchor="middle" x="284.5" y="-287.9" font-family="Microsoft YaHei" font-size="18.00" fill="#0f172a">Phase 0B 新增：证据驱动的诊断闭环</text>
</g>
<!-- user -->
<g id="node1" class="node">
<title>user</title>
<polygon fill="#f8fafc" stroke="none" points="0,-429.25 0,-486.75 79,-486.75 79,-429.25 0,-429.25"/>
<polygon fill="none" stroke="#64748b" points="0,-456.5 0,-486.75 79,-486.75 79,-456.5 0,-456.5"/>
<text xml:space="preserve" text-anchor="start" x="20" y="-470.25" font-family="Microsoft YaHei" font-weight="bold" font-size="10.00" fill="#0f172a">本地用户</text>
<polygon fill="none" stroke="#64748b" points="0,-429.25 0,-456.5 79,-456.5 79,-429.25 0,-429.25"/>
<text xml:space="preserve" text-anchor="start" x="8" y="-439.5" font-family="Microsoft YaHei" font-size="8.00" fill="#0f172a">调用 · 补充 · 确认</text>
</g>
<!-- api -->
<g id="node2" class="node">
<title>api</title>
<polygon fill="#dbeafe" stroke="none" points="128,-411.25 128,-504.75 273.75,-504.75 273.75,-411.25 128,-411.25"/>
<polygon fill="none" stroke="#3b82f6" points="128,-474.5 128,-504.75 273.75,-504.75 273.75,-474.5 128,-474.5"/>
<text xml:space="preserve" text-anchor="start" x="181" y="-488.25" font-family="Microsoft YaHei" font-weight="bold" font-size="10.00" fill="#0f172a">诊断 API</text>
<polygon fill="none" stroke="#3b82f6" points="128,-447.25 128,-474.5 273.75,-474.5 273.75,-447.25 128,-447.25"/>
<text xml:space="preserve" text-anchor="start" x="157.75" y="-457.5" font-family="Microsoft YaHei" font-size="8.00" fill="#0f172a">创建 · 查询 · 运行 · 取消</text>
<polygon fill="#dcfce7" stroke="none" points="128,-411.25 128,-447.25 273.75,-447.25 273.75,-411.25 128,-411.25"/>
<polygon fill="none" stroke="#3b82f6" points="128,-411.25 128,-447.25 273.75,-447.25 273.75,-411.25 128,-411.25"/>
<text xml:space="preserve" text-anchor="start" x="151.38" y="-430.75" font-family="Microsoft YaHei" font-weight="bold" font-size="10.00" fill="#166534">NEW</text>
<text xml:space="preserve" text-anchor="start" x="176.12" y="-430.75" font-family="Microsoft YaHei" font-size="10.00" fill="#166534"> · Evidence 查询</text>
<text xml:space="preserve" text-anchor="start" x="136" y="-420.75" font-family="Microsoft YaHei" font-size="10.00" fill="#166534">Supplement · Confirmation</text>
</g>
<!-- user&#45;&gt;api -->
<g id="edge1" class="edge">
<title>user&#45;&gt;api</title>
<path fill="none" stroke="#f59e0b" stroke-width="2.5" d="M78.98,-458C78.98,-458 117.52,-458 117.52,-458"/>
<polygon fill="#f59e0b" stroke="#f59e0b" stroke-width="2.5" points="117.52,-460.38 124.32,-458 117.52,-455.62 117.52,-460.38"/>
</g>
<!-- service -->
<g id="node4" class="node">
<title>service</title>
<polygon fill="#e0f2fe" stroke="none" points="326.88,-511.25 326.88,-568.75 489.88,-568.75 489.88,-511.25 326.88,-511.25"/>
<polygon fill="none" stroke="#0284c7" points="326.88,-538.5 326.88,-568.75 489.88,-568.75 489.88,-538.5 326.88,-538.5"/>
<text xml:space="preserve" text-anchor="start" x="334.88" y="-552.25" font-family="Microsoft YaHei" font-weight="bold" font-size="10.00" fill="#0f172a">DiagnosisApplicationService</text>
<polygon fill="none" stroke="#0284c7" points="326.88,-511.25 326.88,-538.5 489.88,-538.5 489.88,-511.25 326.88,-511.25"/>
<text xml:space="preserve" text-anchor="start" x="360.38" y="-521.5" font-family="Microsoft YaHei" font-size="8.00" fill="#0f172a">用例 · 事务 · 运行冲突保护</text>
</g>
<!-- api&#45;&gt;service -->
<g id="edge2" class="edge">
<title>api&#45;&gt;service</title>
<path fill="none" stroke="#f59e0b" stroke-width="2.5" d="M273.58,-495.75C333.52,-495.75 408.75,-495.75 408.75,-495.75 408.75,-495.75 408.75,-501.14 408.75,-501.14"/>
<polygon fill="#f59e0b" stroke="#f59e0b" stroke-width="2.5" points="406.37,-501.14 408.75,-507.94 411.13,-501.14 406.37,-501.14"/>
</g>
<!-- human_usecases -->
<g id="node5" class="node">
<title>human_usecases</title>
<polygon fill="#dcfce7" stroke="none" points="322.75,-429.25 322.75,-486.75 494,-486.75 494,-429.25 322.75,-429.25"/>
<polygon fill="none" stroke="#16a34a" points="322.75,-456.5 322.75,-486.75 494,-486.75 494,-456.5 322.75,-456.5"/>
<text xml:space="preserve" text-anchor="start" x="330.75" y="-470.25" font-family="Microsoft YaHei" font-weight="bold" font-size="10.00" fill="#166534">NEW · Human Loop Use Cases</text>
<polygon fill="none" stroke="#16a34a" points="322.75,-429.25 322.75,-456.5 494,-456.5 494,-429.25 322.75,-429.25"/>
<text xml:space="preserve" text-anchor="start" x="348.75" y="-439.5" font-family="Microsoft YaHei" font-size="8.00" fill="#0f172a">补充信息 · 确认 · 驳回 · 继续调查</text>
</g>
<!-- api&#45;&gt;human_usecases -->
<g id="edge10" class="edge">
<title>api&#45;&gt;human_usecases</title>
<path fill="none" stroke="#16a34a" stroke-width="2.1" d="M273.74,-467.58C273.74,-467.58 312.91,-467.58 312.91,-467.58"/>
<polygon fill="#16a34a" stroke="#16a34a" stroke-width="2.1" points="312.91,-469.96 319.71,-467.58 312.91,-465.2 312.91,-469.96"/>
</g>
<!-- knowledge_usecase -->
<g id="node6" class="node">
<title>knowledge_usecase</title>
<polygon fill="#dcfce7" stroke="none" points="327.25,-347.25 327.25,-404.75 489.5,-404.75 489.5,-347.25 327.25,-347.25"/>
<polygon fill="none" stroke="#16a34a" points="327.25,-374.5 327.25,-404.75 489.5,-404.75 489.5,-374.5 327.25,-374.5"/>
<text xml:space="preserve" text-anchor="start" x="335.25" y="-388.25" font-family="Microsoft YaHei" font-weight="bold" font-size="10.00" fill="#166534">NEW · Knowledge Use Cases</text>
<polygon fill="none" stroke="#16a34a" points="327.25,-347.25 327.25,-374.5 489.5,-374.5 489.5,-347.25 327.25,-347.25"/>
<text xml:space="preserve" text-anchor="start" x="368.62" y="-357.5" font-family="Microsoft YaHei" font-size="8.00" fill="#0f172a">创建 · 查询 · 状态管理</text>
</g>
<!-- api&#45;&gt;knowledge_usecase -->
<g id="edge11" class="edge">
<title>api&#45;&gt;knowledge_usecase</title>
<path fill="none" stroke="#16a34a" stroke-width="2.1" d="M224.75,-411.46C224.75,-402.45 224.75,-395.75 224.75,-395.75 224.75,-395.75 317.32,-395.75 317.32,-395.75"/>
<polygon fill="#16a34a" stroke="#16a34a" stroke-width="2.1" points="317.32,-398.13 324.12,-395.75 317.32,-393.37 317.32,-398.13"/>
</g>
<!-- redact -->
<g id="node16" class="node">
<title>redact</title>
<polygon fill="#dcfce7" stroke="none" points="144.88,-165.25 144.88,-222.75 256.88,-222.75 256.88,-165.25 144.88,-165.25"/>
<polygon fill="none" stroke="#16a34a" points="144.88,-192.5 144.88,-222.75 256.88,-222.75 256.88,-192.5 144.88,-192.5"/>
<text xml:space="preserve" text-anchor="start" x="168.25" y="-206.25" font-family="Microsoft YaHei" font-weight="bold" font-size="10.00" fill="#166534">1 · 入库前脱敏</text>
<polygon fill="none" stroke="#16a34a" points="144.88,-165.25 144.88,-192.5 256.88,-192.5 256.88,-165.25 144.88,-165.25"/>
<text xml:space="preserve" text-anchor="start" x="152.88" y="-175.5" font-family="Microsoft YaHei" font-size="8.00" fill="#0f172a">用户描述 · 日志 · 人工备注</text>
</g>
<!-- api&#45;&gt;redact -->
<g id="edge17" class="edge">
<title>api&#45;&gt;redact</title>
<path fill="none" stroke="#16a34a" stroke-width="2.3" d="M273.45,-420.25C283.1,-420.25 289.75,-420.25 289.75,-420.25 289.75,-420.25 289.75,-208.38 289.75,-208.38 289.75,-208.38 266.94,-208.38 266.94,-208.38"/>
<polygon fill="#16a34a" stroke="#16a34a" stroke-width="2.3" points="266.94,-206 260.14,-208.38 266.94,-210.76 266.94,-206"/>
</g>
<!-- governance -->
<g id="node3" class="node">
<title>governance</title>
<polygon fill="#ffffff" stroke="none" points="129,-333.25 129,-386.75 272.75,-386.75 272.75,-333.25 129,-333.25"/>
<polygon fill="none" stroke="#60a5fa" points="129,-358.5 129,-386.75 272.75,-386.75 272.75,-358.5 129,-358.5"/>
<text xml:space="preserve" text-anchor="start" x="181.38" y="-371.25" font-family="Microsoft YaHei" font-weight="bold" font-size="10.00" fill="#0f172a">请求治理</text>
<polygon fill="none" stroke="#60a5fa" points="129,-333.25 129,-358.5 272.75,-358.5 272.75,-333.25 129,-333.25"/>
<text xml:space="preserve" text-anchor="start" x="136" y="-342.5" font-family="Microsoft YaHei" font-size="8.00" fill="#0f172a">Request ID · 统一异常 · 结构化日志</text>
</g>
<!-- governance&#45;&gt;api -->
<g id="edge9" class="edge">
<title>governance&#45;&gt;api</title>
<path fill="none" stroke="#94a3b8" stroke-width="1.25" stroke-dasharray="5,2" d="M176.75,-386.52C176.75,-394.23 176.75,-402.89 176.75,-411.44"/>
</g>
<!-- loop -->
<g id="node8" class="node">
<title>loop</title>
<polygon fill="#ffffff" stroke="none" points="562,-627.12 562,-712.88 693,-712.88 693,-627.12 562,-627.12"/>
<polygon fill="#7c3aed" stroke="none" points="562,-680.62 562,-712.88 693,-712.88 693,-680.62 562,-680.62"/>
<polygon fill="none" stroke="#7c3aed" points="562,-680.62 562,-712.88 693,-712.88 693,-680.62 562,-680.62"/>
<text xml:space="preserve" text-anchor="start" x="585.12" y="-695.38" font-family="Microsoft YaHei" font-weight="bold" font-size="10.00" fill="#ffffff">ToolLoopRunner</text>
<polygon fill="none" stroke="#7c3aed" points="562,-652.38 562,-680.62 693,-680.62 693,-652.38 562,-652.38"/>
<text xml:space="preserve" text-anchor="start" x="569" y="-662.38" font-family="Microsoft YaHei" font-size="10.00" fill="#0f172a">LLM 推理 ⇄ 受控工具调用</text>
<polygon fill="none" stroke="#7c3aed" points="562,-627.12 562,-652.38 693,-652.38 693,-627.12 562,-627.12"/>
<text xml:space="preserve" text-anchor="start" x="575.75" y="-636.38" font-family="Microsoft YaHei" font-size="8.00" fill="#0f172a">预算 · ToolRun · 结构化结论</text>
</g>
<!-- service&#45;&gt;loop -->
<g id="edge3" class="edge">
<title>service&#45;&gt;loop</title>
<path fill="none" stroke="#f59e0b" stroke-width="2.5" d="M489.83,-559C528.23,-559 565.75,-559 565.75,-559 565.75,-559 565.75,-616.82 565.75,-616.82"/>
<polygon fill="#f59e0b" stroke="#f59e0b" stroke-width="2.5" points="563.37,-616.82 565.75,-623.62 568.13,-616.82 563.37,-616.82"/>
</g>
<!-- new_ports -->
<g id="node12" class="node">
<title>new_ports</title>
<polygon fill="#dcfce7" stroke="none" points="764,-456.38 764,-543.62 899.5,-543.62 899.5,-456.38 764,-456.38"/>
<polygon fill="none" stroke="#16a34a" points="764,-515.38 764,-543.62 899.5,-543.62 899.5,-515.38 764,-515.38"/>
<text xml:space="preserve" text-anchor="start" x="775.5" y="-528.12" font-family="Microsoft YaHei" font-weight="bold" font-size="10.00" fill="#166534">NEW · Phase 0B Ports</text>
<polygon fill="none" stroke="#16a34a" points="764,-456.38 764,-515.38 899.5,-515.38 899.5,-456.38 764,-456.38"/>
<text xml:space="preserve" text-anchor="start" x="812.25" y="-499.38" font-family="Microsoft YaHei" font-size="8.00" fill="#0f172a">Redaction</text>
<text xml:space="preserve" text-anchor="start" x="778.12" y="-488.12" font-family="Microsoft YaHei" font-size="8.00" fill="#0f172a">Evidence Repository / Store</text>
<text xml:space="preserve" text-anchor="start" x="771" y="-476.88" font-family="Microsoft YaHei" font-size="8.00" fill="#0f172a">Knowledge Repository / Search</text>
<text xml:space="preserve" text-anchor="start" x="791.62" y="-465.62" font-family="Microsoft YaHei" font-size="8.00" fill="#0f172a">Confirmation · Audit</text>
</g>
<!-- service&#45;&gt;new_ports -->
<g id="edge12" class="edge">
<title>service&#45;&gt;new_ports</title>
<path fill="none" stroke="#16a34a" stroke-width="2.1" d="M489.51,-527.44C489.51,-527.44 754.17,-527.44 754.17,-527.44"/>
<polygon fill="#16a34a" stroke="#16a34a" stroke-width="2.1" points="754.17,-529.82 760.97,-527.44 754.17,-525.06 754.17,-529.82"/>
</g>
<!-- human_usecases&#45;&gt;new_ports -->
<g id="edge13" class="edge">
<title>human_usecases&#45;&gt;new_ports</title>
<path fill="none" stroke="#16a34a" stroke-width="2.1" d="M493.8,-471.56C493.8,-471.56 754.24,-471.56 754.24,-471.56"/>
<polygon fill="#16a34a" stroke="#16a34a" stroke-width="2.1" points="754.24,-473.94 761.04,-471.56 754.24,-469.18 754.24,-473.94"/>
</g>
<!-- human_usecases&#45;&gt;redact -->
<g id="edge25" class="edge">
<title>human_usecases&#45;&gt;redact</title>
<path fill="none" stroke="#f59e0b" stroke-width="2.2" stroke-dasharray="5,2" d="M323.08,-448.42C313.3,-448.42 306.75,-448.42 306.75,-448.42 306.75,-448.42 306.75,-194 306.75,-194 306.75,-194 266.73,-194 266.73,-194"/>
<polygon fill="#f59e0b" stroke="#f59e0b" stroke-width="2.2" points="266.73,-191.62 259.93,-194 266.73,-196.38 266.73,-191.62"/>
</g>
<!-- knowledge_usecase&#45;&gt;new_ports -->
<g id="edge14" class="edge">
<title>knowledge_usecase&#45;&gt;new_ports</title>
<path fill="none" stroke="#16a34a" stroke-width="2.1" d="M489.01,-389.19C611.84,-389.19 831.75,-389.19 831.75,-389.19 831.75,-389.19 831.75,-446.54 831.75,-446.54"/>
<polygon fill="#16a34a" stroke="#16a34a" stroke-width="2.1" points="829.37,-446.54 831.75,-453.34 834.13,-446.54 829.37,-446.54"/>
</g>
<!-- strategy -->
<g id="node7" class="node">
<title>strategy</title>
<polygon fill="#f5f3ff" stroke="none" points="573.62,-549.25 573.62,-602.75 681.38,-602.75 681.38,-549.25 573.62,-549.25"/>
<polygon fill="none" stroke="#8b5cf6" points="573.62,-574.5 573.62,-602.75 681.38,-602.75 681.38,-574.5 573.62,-574.5"/>
<text xml:space="preserve" text-anchor="start" x="580.62" y="-587.25" font-family="Microsoft YaHei" font-weight="bold" font-size="10.00" fill="#0f172a">DiagnosisStrategy</text>
<polygon fill="none" stroke="#8b5cf6" points="573.62,-549.25 573.62,-574.5 681.38,-574.5 681.38,-549.25 573.62,-549.25"/>
<text xml:space="preserve" text-anchor="start" x="595.25" y="-558.5" font-family="Microsoft YaHei" font-size="8.00" fill="#0f172a">提示 · 工具白名单</text>
</g>
<!-- strategy&#45;&gt;loop -->
<g id="edge4" class="edge">
<title>strategy&#45;&gt;loop</title>
<path fill="none" stroke="#64748b" stroke-width="1.25" d="M627.75,-602.69C627.75,-602.69 627.75,-618.73 627.75,-618.73"/>
<polygon fill="#64748b" stroke="#64748b" stroke-width="1.25" points="625.37,-618.73 627.75,-625.53 630.13,-618.73 625.37,-618.73"/>
</g>
<!-- registry -->
<g id="node9" class="node">
<title>registry</title>
<polygon fill="#f5f3ff" stroke="none" points="565.38,-829.25 565.38,-882.75 689.62,-882.75 689.62,-829.25 565.38,-829.25"/>
<polygon fill="none" stroke="#8b5cf6" points="565.38,-854.5 565.38,-882.75 689.62,-882.75 689.62,-854.5 565.38,-854.5"/>
<text xml:space="preserve" text-anchor="start" x="593.75" y="-867.25" font-family="Microsoft YaHei" font-weight="bold" font-size="10.00" fill="#0f172a">Tool Registry</text>
<polygon fill="none" stroke="#8b5cf6" points="565.38,-829.25 565.38,-854.5 689.62,-854.5 689.62,-829.25 565.38,-829.25"/>
<text xml:space="preserve" text-anchor="start" x="572.38" y="-838.5" font-family="Microsoft YaHei" font-size="8.00" fill="#0f172a">knowledge__search 契约不变</text>
</g>
<!-- loop&#45;&gt;registry -->
<g id="edge5" class="edge">
<title>loop&#45;&gt;registry</title>
<path fill="none" stroke="#f59e0b" stroke-width="2.5" d="M692.98,-670C719.84,-670 744.75,-670 744.75,-670 744.75,-670 744.75,-847.08 744.75,-847.08 744.75,-847.08 700.14,-847.08 700.14,-847.08"/>
<polygon fill="#f59e0b" stroke="#f59e0b" stroke-width="2.5" points="700.14,-844.7 693.34,-847.08 700.14,-849.46 700.14,-844.7"/>
</g>
<!-- citation -->
<g id="node10" class="node">
<title>citation</title>
<polygon fill="#dcfce7" stroke="none" points="543,-736.62 543,-805.38 712,-805.38 712,-736.62 543,-736.62"/>
<polygon fill="none" stroke="#16a34a" points="543,-775.12 543,-805.38 712,-805.38 712,-775.12 543,-775.12"/>
<text xml:space="preserve" text-anchor="start" x="551" y="-788.88" font-family="Microsoft YaHei" font-weight="bold" font-size="10.00" fill="#166534">NEW · EvidenceCitationPolicy</text>
<polygon fill="none" stroke="#16a34a" points="543,-736.62 543,-775.12 712,-775.12 712,-736.62 543,-736.62"/>
<text xml:space="preserve" text-anchor="start" x="573.88" y="-758.12" font-family="Microsoft YaHei" font-size="8.00" fill="#0f172a">校验 Evidence 归属与引用</text>
<text xml:space="preserve" text-anchor="start" x="551" y="-746.88" font-family="Microsoft YaHei" font-size="8.00" fill="#0f172a">限制 probable / possible / confirmed</text>
</g>
<!-- loop&#45;&gt;citation -->
<g id="edge21" class="edge">
<title>loop&#45;&gt;citation</title>
<path fill="none" stroke="#16a34a" stroke-width="2.3" d="M627.75,-712.83C627.75,-712.83 627.75,-726.39 627.75,-726.39"/>
<polygon fill="#16a34a" stroke="#16a34a" stroke-width="2.3" points="625.37,-726.39 627.75,-733.19 630.13,-726.39 625.37,-726.39"/>
</g>
<!-- existing_ports -->
<g id="node11" class="node">
<title>existing_ports</title>
<polygon fill="#fae8ff" stroke="none" points="761,-567.25 761,-620.75 902.5,-620.75 902.5,-567.25 761,-567.25"/>
<polygon fill="none" stroke="#a855f7" points="761,-592.5 761,-620.75 902.5,-620.75 902.5,-592.5 761,-592.5"/>
<text xml:space="preserve" text-anchor="start" x="806.62" y="-605.25" font-family="Microsoft YaHei" font-weight="bold" font-size="10.00" fill="#0f172a">既有 Ports</text>
<polygon fill="none" stroke="#a855f7" points="761,-567.25 761,-592.5 902.5,-592.5 902.5,-567.25 761,-567.25"/>
<text xml:space="preserve" text-anchor="start" x="768" y="-576.5" font-family="Microsoft YaHei" font-size="8.00" fill="#0f172a">LLM · Diagnosis · Execution · Tool</text>
</g>
<!-- loop&#45;&gt;existing_ports -->
<g id="edge6" class="edge">
<title>loop&#45;&gt;existing_ports</title>
<path fill="none" stroke="#64748b" stroke-width="1.25" d="M690.75,-627.36C690.75,-618.48 690.75,-611.75 690.75,-611.75 690.75,-611.75 752.56,-611.75 752.56,-611.75"/>
<polygon fill="#64748b" stroke="#64748b" stroke-width="1.25" points="752.56,-614.13 759.36,-611.75 752.56,-609.37 752.56,-614.13"/>
</g>
<!-- registry&#45;&gt;existing_ports -->
<g id="edge7" class="edge">
<title>registry&#45;&gt;existing_ports</title>
<path fill="none" stroke="#64748b" stroke-width="1.25" d="M689.61,-864.92C749.71,-864.92 831.75,-864.92 831.75,-864.92 831.75,-864.92 831.75,-629.16 831.75,-629.16"/>
<polygon fill="#64748b" stroke="#64748b" stroke-width="1.25" points="834.13,-629.16 831.75,-622.36 829.37,-629.16 834.13,-629.16"/>
</g>
<!-- conclusion -->
<g id="node19" class="node">
<title>conclusion</title>
<polygon fill="#dcfce7" stroke="none" points="769.75,-26.25 769.75,-83.75 893.75,-83.75 893.75,-26.25 769.75,-26.25"/>
<polygon fill="none" stroke="#16a34a" points="769.75,-53.5 769.75,-83.75 893.75,-83.75 893.75,-53.5 769.75,-53.5"/>
<text xml:space="preserve" text-anchor="start" x="784.5" y="-67.25" font-family="Microsoft YaHei" font-weight="bold" font-size="10.00" fill="#166534">4 · 有依据的初步结论</text>
<polygon fill="none" stroke="#16a34a" points="769.75,-26.25 769.75,-53.5 893.75,-53.5 893.75,-26.25 769.75,-26.25"/>
<text xml:space="preserve" text-anchor="start" x="777.75" y="-36.5" font-family="Microsoft YaHei" font-size="8.00" fill="#0f172a">引用规则校验 · 不允许伪造 ID</text>
</g>
<!-- citation&#45;&gt;conclusion -->
<g id="edge22" class="edge">
<title>citation&#45;&gt;conclusion</title>
<path fill="none" stroke="#16a34a" stroke-width="2.3" d="M702.75,-736.95C702.75,-594.66 702.75,-55 702.75,-55 702.75,-55 759.61,-55 759.61,-55"/>
<polygon fill="#16a34a" stroke="#16a34a" stroke-width="2.3" points="759.61,-57.38 766.41,-55 759.61,-52.62 759.61,-57.38"/>
</g>
<!-- existing_adapters -->
<g id="node13" class="node">
<title>existing_adapters</title>
<polygon fill="#ccfbf1" stroke="none" points="997.25,-561.62 997.25,-626.38 1096,-626.38 1096,-561.62 997.25,-561.62"/>
<polygon fill="none" stroke="#0f766e" points="997.25,-598.12 997.25,-626.38 1096,-626.38 1096,-598.12 997.25,-598.12"/>
<text xml:space="preserve" text-anchor="start" x="1012.12" y="-610.88" font-family="Microsoft YaHei" font-weight="bold" font-size="10.00" fill="#0f172a">既有 Adapters</text>
<polygon fill="none" stroke="#0f766e" points="997.25,-561.62 997.25,-598.12 1096,-598.12 1096,-561.62 997.25,-561.62"/>
<text xml:space="preserve" text-anchor="start" x="1006.12" y="-582.12" font-family="Microsoft YaHei" font-size="8.00" fill="#0f172a">DeepSeek / Fake LLM</text>
<text xml:space="preserve" text-anchor="start" x="1004.25" y="-570.88" font-family="Microsoft YaHei" font-size="8.00" fill="#0f172a">SQLite + SQLAlchemy</text>
</g>
<!-- existing_ports&#45;&gt;existing_adapters -->
<g id="edge8" class="edge">
<title>existing_ports&#45;&gt;existing_adapters</title>
<path fill="none" stroke="#64748b" stroke-width="1.25" d="M902.41,-594C902.41,-594 988.65,-594 988.65,-594"/>
<polygon fill="#64748b" stroke="#64748b" stroke-width="1.25" points="988.65,-596.38 995.45,-594 988.65,-591.62 988.65,-596.38"/>
</g>
<!-- phase0b_adapters -->
<g id="node14" class="node">
<title>phase0b_adapters</title>
<polygon fill="#dcfce7" stroke="none" points="951.5,-462 951.5,-538 1141.75,-538 1141.75,-462 951.5,-462"/>
<polygon fill="none" stroke="#16a34a" points="951.5,-509.75 951.5,-538 1141.75,-538 1141.75,-509.75 951.5,-509.75"/>
<text xml:space="preserve" text-anchor="start" x="981" y="-522.5" font-family="Microsoft YaHei" font-weight="bold" font-size="10.00" fill="#166534">NEW · Phase 0B Adapters</text>
<polygon fill="none" stroke="#16a34a" points="951.5,-462 951.5,-509.75 1141.75,-509.75 1141.75,-462 951.5,-462"/>
<text xml:space="preserve" text-anchor="start" x="1011" y="-493.75" font-family="Microsoft YaHei" font-size="8.00" fill="#0f172a">LocalRuleRedactor</text>
<text xml:space="preserve" text-anchor="start" x="958.5" y="-482.5" font-family="Microsoft YaHei" font-size="8.00" fill="#0f172a">Evidence / Confirmation / Audit SQLAlchemy</text>
<text xml:space="preserve" text-anchor="start" x="997.5" y="-471.25" font-family="Microsoft YaHei" font-size="8.00" fill="#0f172a">SQLite Knowledge Search</text>
</g>
<!-- new_ports&#45;&gt;phase0b_adapters -->
<g id="edge15" class="edge">
<title>new_ports&#45;&gt;phase0b_adapters</title>
<path fill="none" stroke="#16a34a" stroke-width="2.1" d="M899.44,-500C899.44,-500 941.78,-500 941.78,-500"/>
<polygon fill="#16a34a" stroke="#16a34a" stroke-width="2.1" points="941.78,-502.38 948.58,-500 941.78,-497.62 941.78,-502.38"/>
</g>
<!-- json_old -->
<g id="node15" class="node">
<title>json_old</title>
<polygon fill="#f1f5f9" stroke="none" points="976.62,-373.62 976.62,-438.38 1116.62,-438.38 1116.62,-373.62 976.62,-373.62"/>
<polygon fill="none" stroke="#94a3b8" points="976.62,-410.12 976.62,-438.38 1116.62,-438.38 1116.62,-410.12 976.62,-410.12"/>
<text xml:space="preserve" text-anchor="start" x="983.62" y="-422.88" font-family="Microsoft YaHei" text-decoration="line-through" font-size="10.00" fill="#64748b">JSON Knowledge Adapter</text>
<polygon fill="none" stroke="#94a3b8" points="976.62,-373.62 976.62,-410.12 1116.62,-410.12 1116.62,-373.62 976.62,-373.62"/>
<text xml:space="preserve" text-anchor="start" x="984.75" y="-394.12" font-family="Microsoft YaHei" font-size="8.00" fill="#64748b">Phase 0A 实现 · 已由 SQLite 替换</text>
<text xml:space="preserve" text-anchor="start" x="997.12" y="-382.88" font-family="Microsoft YaHei" font-size="8.00" fill="#64748b">保留为种子导入与实现参考</text>
</g>
<!-- json_old&#45;&gt;phase0b_adapters -->
<g id="edge16" class="edge">
<title>json_old&#45;&gt;phase0b_adapters</title>
<path fill="none" stroke="#94a3b8" stroke-width="1.25" stroke-dasharray="5,2" d="M1046.75,-438.35C1046.75,-438.35 1046.75,-453.4 1046.75,-453.4"/>
<polygon fill="#94a3b8" stroke="#94a3b8" stroke-width="1.25" points="1044.37,-453.4 1046.75,-460.2 1049.13,-453.4 1044.37,-453.4"/>
</g>
<!-- evidence -->
<g id="node17" class="node">
<title>evidence</title>
<polygon fill="#dcfce7" stroke="none" points="344.88,-154 344.88,-234 471.88,-234 471.88,-154 344.88,-154"/>
<polygon fill="none" stroke="#16a34a" points="344.88,-203.75 344.88,-234 471.88,-234 471.88,-203.75 344.88,-203.75"/>
<text xml:space="preserve" text-anchor="start" x="355.5" y="-217.5" font-family="Microsoft YaHei" font-weight="bold" font-size="10.00" fill="#166534">2 · Evidence Domain</text>
<polygon fill="none" stroke="#16a34a" points="344.88,-154 344.88,-203.75 471.88,-203.75 471.88,-154 344.88,-154"/>
<text xml:space="preserve" text-anchor="start" x="353.25" y="-186.75" font-family="Microsoft YaHei" font-size="8.00" fill="#0f172a">user_statement · log_excerpt</text>
<text xml:space="preserve" text-anchor="start" x="352.88" y="-175.5" font-family="Microsoft YaHei" font-size="8.00" fill="#0f172a">knowledge_entry · hash 去重</text>
<text xml:space="preserve" text-anchor="start" x="355.88" y="-164.25" font-family="Microsoft YaHei" font-size="8.00" fill="#0f172a">reliability · redaction status</text>
</g>
<!-- redact&#45;&gt;evidence -->
<g id="edge18" class="edge">
<title>redact&#45;&gt;evidence</title>
<path fill="none" stroke="#16a34a" stroke-width="2.3" d="M256.75,-179.62C256.75,-179.62 334.79,-179.62 334.79,-179.62"/>
<polygon fill="#16a34a" stroke="#16a34a" stroke-width="2.3" points="334.79,-182.01 341.59,-179.63 334.79,-177.25 334.79,-182.01"/>
</g>
<!-- evidence_context -->
<g id="node18" class="node">
<title>evidence_context</title>
<polygon fill="#dcfce7" stroke="none" points="570,-135.62 570,-204.38 685,-204.38 685,-135.62 570,-135.62"/>
<polygon fill="none" stroke="#16a34a" points="570,-174.12 570,-204.38 685,-204.38 685,-174.12 570,-174.12"/>
<text xml:space="preserve" text-anchor="start" x="580.25" y="-187.88" font-family="Microsoft YaHei" font-weight="bold" font-size="10.00" fill="#166534">3 · 可引用证据上下文</text>
<polygon fill="none" stroke="#16a34a" points="570,-135.62 570,-174.12 685,-174.12 685,-135.62 570,-135.62"/>
<text xml:space="preserve" text-anchor="start" x="591.12" y="-157.12" font-family="Microsoft YaHei" font-size="8.00" fill="#0f172a">EvidenceDraft 落库</text>
<text xml:space="preserve" text-anchor="start" x="578" y="-145.88" font-family="Microsoft YaHei" font-size="8.00" fill="#0f172a">真实 Evidence ID 回传模型</text>
</g>
<!-- evidence&#45;&gt;evidence_context -->
<g id="edge19" class="edge">
<title>evidence&#45;&gt;evidence_context</title>
<path fill="none" stroke="#16a34a" stroke-width="2.3" d="M471.76,-179.19C471.76,-179.19 559.96,-179.19 559.96,-179.19"/>
<polygon fill="#16a34a" stroke="#16a34a" stroke-width="2.3" points="559.96,-181.57 566.76,-179.19 559.96,-176.81 559.96,-181.57"/>
</g>
<!-- audit -->
<g id="node21" class="node">
<title>audit</title>
<polygon fill="#dcfce7" stroke="none" points="768.25,-200.25 768.25,-257.75 895.25,-257.75 895.25,-200.25 768.25,-200.25"/>
<polygon fill="none" stroke="#16a34a" points="768.25,-227.5 768.25,-257.75 895.25,-257.75 895.25,-227.5 768.25,-227.5"/>
<text xml:space="preserve" text-anchor="start" x="801.38" y="-241.25" font-family="Microsoft YaHei" font-weight="bold" font-size="10.00" fill="#166534">Audit Event</text>
<polygon fill="none" stroke="#16a34a" points="768.25,-200.25 768.25,-227.5 895.25,-227.5 895.25,-200.25 768.25,-200.25"/>
<text xml:space="preserve" text-anchor="start" x="776.25" y="-210.5" font-family="Microsoft YaHei" font-size="8.00" fill="#0f172a">安全摘要 · 操作者 · 动作 · 目标</text>
</g>
<!-- evidence&#45;&gt;audit -->
<g id="edge26" class="edge">
<title>evidence&#45;&gt;audit</title>
<path fill="none" stroke="#16a34a" stroke-width="1.25" stroke-dasharray="5,2" d="M471.76,-219.19C471.76,-219.19 759.59,-219.19 759.59,-219.19"/>
<polygon fill="#16a34a" stroke="#16a34a" stroke-width="1.25" points="759.59,-221.57 766.39,-219.19 759.59,-216.81 759.59,-221.57"/>
</g>
<!-- evidence_context&#45;&gt;loop -->
<g id="edge20" class="edge">
<title>evidence_context&#45;&gt;loop</title>
<path fill="none" stroke="#16a34a" stroke-width="2.3" d="M684.84,-188.31C686.69,-188.31 687.75,-188.31 687.75,-188.31 687.75,-188.31 687.75,-616.97 687.75,-616.97"/>
<polygon fill="#16a34a" stroke="#16a34a" stroke-width="2.3" points="685.37,-616.97 687.75,-623.77 690.13,-616.97 685.37,-616.97"/>
</g>
<!-- confirmation -->
<g id="node20" class="node">
<title>confirmation</title>
<polygon fill="#dcfce7" stroke="none" points="779.12,-107.62 779.12,-176.38 884.38,-176.38 884.38,-107.62 779.12,-107.62"/>
<polygon fill="none" stroke="#16a34a" points="779.12,-146.12 779.12,-176.38 884.38,-176.38 884.38,-146.12 779.12,-146.12"/>
<text xml:space="preserve" text-anchor="start" x="789.38" y="-159.88" font-family="Microsoft YaHei" font-weight="bold" font-size="10.00" fill="#166534">5 · Confirmation</text>
<polygon fill="none" stroke="#16a34a" points="779.12,-107.62 779.12,-146.12 884.38,-146.12 884.38,-107.62 779.12,-107.62"/>
<text xml:space="preserve" text-anchor="start" x="802.88" y="-129.12" font-family="Microsoft YaHei" font-size="8.00" fill="#0f172a">confirm · reject</text>
<text xml:space="preserve" text-anchor="start" x="787.12" y="-117.88" font-family="Microsoft YaHei" font-size="8.00" fill="#0f172a">continue_investigation</text>
</g>
<!-- conclusion&#45;&gt;confirmation -->
<g id="edge23" class="edge">
<title>conclusion&#45;&gt;confirmation</title>
<path fill="none" stroke="#f59e0b" stroke-width="2.2" stroke-dasharray="5,2" d="M831.75,-83.49C831.75,-83.49 831.75,-97.56 831.75,-97.56"/>
<polygon fill="#f59e0b" stroke="#f59e0b" stroke-width="2.2" points="829.37,-97.56 831.75,-104.36 834.13,-97.56 829.37,-97.56"/>
</g>
<!-- confirmation&#45;&gt;human_usecases -->
<g id="edge24" class="edge">
<title>confirmation&#45;&gt;human_usecases</title>
<path fill="none" stroke="#f59e0b" stroke-width="2.2" stroke-dasharray="5,2" d="M779.34,-156C753.9,-156 728.75,-156 728.75,-156 728.75,-156 728.75,-433.81 728.75,-433.81 728.75,-433.81 503.94,-433.81 503.94,-433.81"/>
<polygon fill="#f59e0b" stroke="#f59e0b" stroke-width="2.2" points="503.94,-431.43 497.14,-433.81 503.94,-436.19 503.94,-431.43"/>
</g>
<!-- confirmation&#45;&gt;audit -->
<g id="edge27" class="edge">
<title>confirmation&#45;&gt;audit</title>
<path fill="none" stroke="#16a34a" stroke-width="1.25" stroke-dasharray="5,2" d="M831.75,-175.89C831.75,-175.89 831.75,-191.73 831.75,-191.73"/>
<polygon fill="#16a34a" stroke="#16a34a" stroke-width="1.25" points="829.37,-191.73 831.75,-198.53 834.13,-191.73 829.37,-191.73"/>
</g>
</g>
</svg>
