<?xml version="1.0" encoding="UTF-8" standalone="no"?>
<!DOCTYPE svg PUBLIC "-//W3C//DTD SVG 1.1//EN"
 "http://www.w3.org/Graphics/SVG/1.1/DTD/svg11.dtd">
<!-- Generated by graphviz version 14.1.3 (20260303.0454)
 -->
<!-- Title: G Pages: 1 -->
<svg width="810pt" height="950pt"
 viewBox="0.00 0.00 810.00 950.00" xmlns="http://www.w3.org/2000/svg" xmlns:xlink="http://www.w3.org/1999/xlink">
<g id="graph0" class="graph" transform="scale(1 1) rotate(0) translate(25.2 924.8)">
<title>G</title>
<polygon fill="white" stroke="none" points="-25.2,25.2 -25.2,-924.8 784.32,-924.8 784.32,25.2 -25.2,25.2"/>
<text xml:space="preserve" text-anchor="middle" x="379.56" y="-874" font-family="Microsoft YaHei" font-size="24.00" fill="#174f86">第 1 课 · 五个权力边界如何协作</text>
<!-- input -->
<g id="node1" class="node">
<title>input</title>
<path fill="#fff1dd" stroke="#d8922f" stroke-width="1.4" d="M190.32,-862.8C190.32,-862.8 122.87,-862.8 122.87,-862.8 116.87,-862.8 110.87,-856.8 110.87,-850.8 110.87,-850.8 110.87,-819.6 110.87,-819.6 110.87,-813.6 116.87,-807.6 122.87,-807.6 122.87,-807.6 190.32,-807.6 190.32,-807.6 196.32,-807.6 202.32,-813.6 202.32,-819.6 202.32,-819.6 202.32,-850.8 202.32,-850.8 202.32,-856.8 196.32,-862.8 190.32,-862.8"/>
<text xml:space="preserve" text-anchor="middle" x="156.59" y="-839.4" font-family="Microsoft YaHei" font-size="14.00" fill="#81520d">① 用户提交</text>
<text xml:space="preserve" text-anchor="middle" x="156.59" y="-822.6" font-family="Microsoft YaHei" font-size="14.00" fill="#81520d">症状 + 日志</text>
</g>
<!-- app_start -->
<g id="node2" class="node">
<title>app_start</title>
<path fill="#e8f3ff" stroke="#347fc4" stroke-width="1.4" d="M259.48,-770.6C259.48,-770.6 53.71,-770.6 53.71,-770.6 47.71,-770.6 41.71,-764.6 41.71,-758.6 41.71,-758.6 41.71,-727.4 41.71,-727.4 41.71,-721.4 47.71,-715.4 53.71,-715.4 53.71,-715.4 259.48,-715.4 259.48,-715.4 265.48,-715.4 271.48,-721.4 271.48,-727.4 271.48,-727.4 271.48,-758.6 271.48,-758.6 271.48,-764.6 265.48,-770.6 259.48,-770.6"/>
<text xml:space="preserve" text-anchor="middle" x="156.59" y="-747.2" font-family="Microsoft YaHei" font-size="14.00" fill="#174f86">② ApplicationService · 编排启动</text>
<text xml:space="preserve" text-anchor="middle" x="156.59" y="-730.4" font-family="Microsoft YaHei" font-size="14.00" fill="#174f86">创建运行记录，调用 ToolLoopRunner</text>
</g>
<!-- input&#45;&gt;app_start -->
<g id="edge1" class="edge">
<title>input&#45;&gt;app_start</title>
<path fill="none" stroke="#e79616" stroke-width="2.3" d="M156.59,-807.14C156.59,-799.38 156.59,-790.77 156.59,-782.46"/>
<polygon fill="#e79616" stroke="#e79616" stroke-width="2.3" points="159.39,-782.53 156.59,-774.53 153.79,-782.53 159.39,-782.53"/>
</g>
<!-- runner -->
<g id="node3" class="node">
<title>runner</title>
<path fill="#f0edff" stroke="#7762dc" stroke-width="1.4" d="M256.75,-666.2C256.75,-666.2 56.44,-666.2 56.44,-666.2 50.44,-666.2 44.44,-660.2 44.44,-654.2 44.44,-654.2 44.44,-606.2 44.44,-606.2 44.44,-600.2 50.44,-594.2 56.44,-594.2 56.44,-594.2 256.75,-594.2 256.75,-594.2 262.75,-594.2 268.75,-600.2 268.75,-606.2 268.75,-606.2 268.75,-654.2 268.75,-654.2 268.75,-660.2 262.75,-666.2 256.75,-666.2"/>
<text xml:space="preserve" text-anchor="middle" x="156.59" y="-642.8" font-family="Microsoft YaHei" font-size="14.00" fill="#3f318f">③ ToolLoopRunner · 执行调查</text>
<text xml:space="preserve" text-anchor="middle" x="156.59" y="-626" font-family="Microsoft YaHei" font-size="14.00" fill="#3f318f">驱动循环、记录 ToolRun / Evidence</text>
<text xml:space="preserve" text-anchor="middle" x="156.59" y="-609.2" font-family="Microsoft YaHei" font-size="14.00" fill="#3f318f">不裁决领域状态</text>
</g>
<!-- app_start&#45;&gt;runner -->
<g id="edge2" class="edge">
<title>app_start&#45;&gt;runner</title>
<path fill="none" stroke="#e79616" stroke-width="2.3" d="M156.59,-714.9C156.59,-703.81 156.59,-690.66 156.59,-678.1"/>
<polygon fill="#e79616" stroke="#e79616" stroke-width="2.3" points="159.39,-678.3 156.59,-670.3 153.79,-678.3 159.39,-678.3"/>
</g>
<!-- llm -->
<g id="node4" class="node">
<title>llm</title>
<path fill="#fff0eb" stroke="#ef7044" stroke-width="1.4" d="M747.12,-657.8C747.12,-657.8 600.06,-657.8 600.06,-657.8 594.06,-657.8 588.06,-651.8 588.06,-645.8 588.06,-645.8 588.06,-614.6 588.06,-614.6 588.06,-608.6 594.06,-602.6 600.06,-602.6 600.06,-602.6 747.12,-602.6 747.12,-602.6 753.12,-602.6 759.12,-608.6 759.12,-614.6 759.12,-614.6 759.12,-645.8 759.12,-645.8 759.12,-651.8 753.12,-657.8 747.12,-657.8"/>
<text xml:space="preserve" text-anchor="middle" x="673.59" y="-634.4" font-family="Microsoft YaHei" font-size="14.00" fill="#8b3218">LLM · 建议者</text>
<text xml:space="preserve" text-anchor="middle" x="673.59" y="-617.6" font-family="Microsoft YaHei" font-size="14.00" fill="#8b3218">只提议工具、参数与候选结论</text>
</g>
<!-- runner&#45;&gt;llm -->
<g id="edge9" class="edge">
<title>runner&#45;&gt;llm</title>
<path fill="none" stroke="#60666d" stroke-width="1.5" d="M269.39,-656.99C331.84,-671.83 396.97,-687.3 396.97,-687.3 396.97,-687.3 438.22,-687.3 438.22,-687.3 438.22,-687.3 570.59,-666.2 570.59,-666.2 570.59,-666.2 575.55,-664.47 583.3,-661.76"/>
<polygon fill="#60666d" stroke="#60666d" stroke-width="1.5" points="583.92,-664.51 590.55,-659.23 582.07,-659.22 583.92,-664.51"/>
<text xml:space="preserve" text-anchor="middle" x="417.59" y="-687.5" font-family="Microsoft YaHei" font-size="11.00" fill="#4f565d">构造上下文</text>
</g>
<!-- registry -->
<g id="node5" class="node">
<title>registry</title>
<path fill="#e2f6ef" stroke="#279475" stroke-width="1.4" d="M540.9,-657.8C540.9,-657.8 350.28,-657.8 350.28,-657.8 344.28,-657.8 338.28,-651.8 338.28,-645.8 338.28,-645.8 338.28,-614.6 338.28,-614.6 338.28,-608.6 344.28,-602.6 350.28,-602.6 350.28,-602.6 540.9,-602.6 540.9,-602.6 546.9,-602.6 552.9,-608.6 552.9,-614.6 552.9,-614.6 552.9,-645.8 552.9,-645.8 552.9,-651.8 546.9,-657.8 540.9,-657.8"/>
<text xml:space="preserve" text-anchor="middle" x="445.59" y="-634.4" font-family="Microsoft YaHei" font-size="14.00" fill="#0b6450">④ ToolRegistry · 安检员</text>
<text xml:space="preserve" text-anchor="middle" x="445.59" y="-617.6" font-family="Microsoft YaHei" font-size="14.00" fill="#0b6450">校验注册 / 白名单 / 权限 / 参数 / 风险</text>
</g>
<!-- runner&#45;&gt;registry -->
<g id="edge11" class="edge">
<title>runner&#45;&gt;registry</title>
<path fill="none" stroke="#60666d" stroke-width="1.5" d="M269.16,-630.2C288.32,-630.2 308.27,-630.2 327.58,-630.2"/>
<polygon fill="#60666d" stroke="#60666d" stroke-width="1.5" points="327.33,-633 335.33,-630.2 327.33,-627.4 327.33,-633"/>
<text xml:space="preserve" text-anchor="middle" x="303.52" y="-636.5" font-family="Microsoft YaHei" font-size="11.00" fill="#4f565d">请求校验</text>
</g>
<!-- validate -->
<g id="node7" class="node">
<title>validate</title>
<path fill="#e2f6ef" stroke="#279475" stroke-width="1.4" d="M301.19,-545C301.19,-545 12,-545 12,-545 6,-545 0,-539 0,-533 0,-533 0,-501.8 0,-501.8 0,-495.8 6,-489.8 12,-489.8 12,-489.8 301.19,-489.8 301.19,-489.8 307.19,-489.8 313.19,-495.8 313.19,-501.8 313.19,-501.8 313.19,-533 313.19,-533 313.19,-539 307.19,-545 301.19,-545"/>
<text xml:space="preserve" text-anchor="middle" x="156.59" y="-521.6" font-family="Microsoft YaHei" font-size="14.00" fill="#0b6450">确定性事实边界</text>
<text xml:space="preserve" text-anchor="middle" x="156.59" y="-504.8" font-family="Microsoft YaHei" font-size="14.00" fill="#0b6450">EvidenceStore + CitationPolicy + ExecutionRepo</text>
</g>
<!-- runner&#45;&gt;validate -->
<g id="edge3" class="edge">
<title>runner&#45;&gt;validate</title>
<path fill="none" stroke="#e79616" stroke-width="2.3" d="M156.59,-593.53C156.59,-581.86 156.59,-568.84 156.59,-556.97"/>
<polygon fill="#e79616" stroke="#e79616" stroke-width="2.3" points="159.39,-557.05 156.59,-549.05 153.79,-557.05 159.39,-557.05"/>
</g>
<!-- llm&#45;&gt;runner -->
<g id="edge10" class="edge">
<title>llm&#45;&gt;runner</title>
<path fill="none" stroke="#ef7044" stroke-width="1.5" d="M592.69,-658.48C579.79,-662.99 570.59,-666.2 570.59,-666.2 570.59,-666.2 438.22,-687.3 438.22,-687.3 438.22,-687.3 396.97,-687.3 396.97,-687.3 396.97,-687.3 338.53,-673.42 279.28,-659.34"/>
<polygon fill="#ef7044" stroke="#ef7044" stroke-width="1.5" points="280.03,-656.64 271.6,-657.52 278.74,-662.09 280.03,-656.64"/>
<text xml:space="preserve" text-anchor="middle" x="417.59" y="-687.5" font-family="Microsoft YaHei" font-size="11.00" fill="#8b3218">提议</text>
</g>
<!-- adapter -->
<g id="node6" class="node">
<title>adapter</title>
<path fill="#e2f6ef" stroke="#279475" stroke-width="1.4" d="M492.87,-545C492.87,-545 398.31,-545 398.31,-545 392.31,-545 386.31,-539 386.31,-533 386.31,-533 386.31,-501.8 386.31,-501.8 386.31,-495.8 392.31,-489.8 398.31,-489.8 398.31,-489.8 492.87,-489.8 492.87,-489.8 498.87,-489.8 504.87,-495.8 504.87,-501.8 504.87,-501.8 504.87,-533 504.87,-533 504.87,-539 498.87,-545 492.87,-545"/>
<text xml:space="preserve" text-anchor="middle" x="445.59" y="-521.6" font-family="Microsoft YaHei" font-size="14.00" fill="#0b6450">Tool Adapter</text>
<text xml:space="preserve" text-anchor="middle" x="445.59" y="-504.8" font-family="Microsoft YaHei" font-size="14.00" fill="#0b6450">受限读取外部资源</text>
</g>
<!-- registry&#45;&gt;adapter -->
<g id="edge12" class="edge">
<title>registry&#45;&gt;adapter</title>
<path fill="none" stroke="#60666d" stroke-width="1.5" d="M445.59,-602.1C445.59,-588.14 445.59,-570.92 445.59,-555.73"/>
<polygon fill="#60666d" stroke="#60666d" stroke-width="1.5" points="448.39,-555.88 445.59,-547.88 442.79,-555.88 448.39,-555.88"/>
<text xml:space="preserve" text-anchor="middle" x="453.84" y="-566.3" font-family="Microsoft YaHei" font-size="11.00" fill="#4f565d">通过</text>
</g>
<!-- adapter&#45;&gt;runner -->
<g id="edge13" class="edge">
<title>adapter&#45;&gt;runner</title>
<path fill="none" stroke="#16846a" stroke-width="1.5" d="M385.93,-541.27C349.39,-555.28 301.63,-573.59 259.16,-589.88"/>
<polygon fill="#16846a" stroke="#16846a" stroke-width="1.5" points="258.21,-587.24 251.75,-592.72 260.22,-592.47 258.21,-587.24"/>
<text xml:space="preserve" text-anchor="middle" x="373.15" y="-566.3" font-family="Microsoft YaHei" font-size="11.00" fill="#0d6753">结果 + EvidenceDraft</text>
</g>
<!-- result -->
<g id="node8" class="node">
<title>result</title>
<path fill="#f0edff" stroke="#7762dc" stroke-width="1.4" d="M207.76,-452.8C207.76,-452.8 105.43,-452.8 105.43,-452.8 99.43,-452.8 93.43,-446.8 93.43,-440.8 93.43,-440.8 93.43,-409.6 93.43,-409.6 93.43,-403.6 99.43,-397.6 105.43,-397.6 105.43,-397.6 207.76,-397.6 207.76,-397.6 213.76,-397.6 219.76,-403.6 219.76,-409.6 219.76,-409.6 219.76,-440.8 219.76,-440.8 219.76,-446.8 213.76,-452.8 207.76,-452.8"/>
<text xml:space="preserve" text-anchor="middle" x="156.59" y="-429.4" font-family="Microsoft YaHei" font-size="14.00" fill="#3f318f">ToolLoopResult</text>
<text xml:space="preserve" text-anchor="middle" x="156.59" y="-412.6" font-family="Microsoft YaHei" font-size="14.00" fill="#3f318f">结构化候选结果</text>
</g>
<!-- validate&#45;&gt;result -->
<g id="edge4" class="edge">
<title>validate&#45;&gt;result</title>
<path fill="none" stroke="#e79616" stroke-width="2.3" d="M156.59,-489.34C156.59,-481.58 156.59,-472.97 156.59,-464.66"/>
<polygon fill="#e79616" stroke="#e79616" stroke-width="2.3" points="159.39,-464.73 156.59,-456.73 153.79,-464.73 159.39,-464.73"/>
</g>
<!-- app_apply -->
<g id="node9" class="node">
<title>app_apply</title>
<path fill="#e8f3ff" stroke="#347fc4" stroke-width="1.4" d="M243.91,-360.6C243.91,-360.6 69.27,-360.6 69.27,-360.6 63.27,-360.6 57.27,-354.6 57.27,-348.6 57.27,-348.6 57.27,-317.4 57.27,-317.4 57.27,-311.4 63.27,-305.4 69.27,-305.4 69.27,-305.4 243.91,-305.4 243.91,-305.4 249.91,-305.4 255.91,-311.4 255.91,-317.4 255.91,-317.4 255.91,-348.6 255.91,-348.6 255.91,-354.6 249.91,-360.6 243.91,-360.6"/>
<text xml:space="preserve" text-anchor="middle" x="156.59" y="-337.2" font-family="Microsoft YaHei" font-size="14.00" fill="#174f86">ApplicationService · 应用结果</text>
<text xml:space="preserve" text-anchor="middle" x="156.59" y="-320.4" font-family="Microsoft YaHei" font-size="14.00" fill="#174f86">调用聚合根领域行为</text>
</g>
<!-- result&#45;&gt;app_apply -->
<g id="edge5" class="edge">
<title>result&#45;&gt;app_apply</title>
<path fill="none" stroke="#e79616" stroke-width="2.3" d="M156.59,-397.14C156.59,-389.38 156.59,-380.77 156.59,-372.46"/>
<polygon fill="#e79616" stroke="#e79616" stroke-width="2.3" points="159.39,-372.53 156.59,-364.53 153.79,-372.53 159.39,-372.53"/>
</g>
<!-- domain -->
<g id="node10" class="node">
<title>domain</title>
<path fill="#e8f3ff" stroke="#347fc4" stroke-width="2" d="M233.23,-254C233.23,-254 79.96,-254 79.96,-254 73.96,-254 67.96,-248 67.96,-242 67.96,-242 67.96,-210.8 67.96,-210.8 67.96,-204.8 73.96,-198.8 79.96,-198.8 79.96,-198.8 233.23,-198.8 233.23,-198.8 239.23,-198.8 245.23,-204.8 245.23,-210.8 245.23,-210.8 245.23,-242 245.23,-242 245.23,-248 239.23,-254 233.23,-254"/>
<text xml:space="preserve" text-anchor="middle" x="156.59" y="-230.6" font-family="Microsoft YaHei" font-size="14.00" fill="#174f86">⑤ DiagnosisCase · 裁决者</text>
<text xml:space="preserve" text-anchor="middle" x="156.59" y="-213.8" font-family="Microsoft YaHei" font-size="14.00" fill="#174f86">检查状态转换是否合法</text>
</g>
<!-- app_apply&#45;&gt;domain -->
<g id="edge6" class="edge">
<title>app_apply&#45;&gt;domain</title>
<path fill="none" stroke="#e79616" stroke-width="2.3" d="M156.59,-304.79C156.59,-293.02 156.59,-279.02 156.59,-266.19"/>
<polygon fill="#e79616" stroke="#e79616" stroke-width="2.3" points="159.39,-266.32 156.59,-258.32 153.79,-266.32 159.39,-266.32"/>
</g>
<!-- waiting -->
<g id="node11" class="node">
<title>waiting</title>
<path fill="#fff1dd" stroke="#d8922f" stroke-width="1.4" d="M266.87,-147.4C266.87,-147.4 46.32,-147.4 46.32,-147.4 40.32,-147.4 34.32,-141.4 34.32,-135.4 34.32,-135.4 34.32,-104.2 34.32,-104.2 34.32,-98.2 40.32,-92.2 46.32,-92.2 46.32,-92.2 266.87,-92.2 266.87,-92.2 272.87,-92.2 278.87,-98.2 278.87,-104.2 278.87,-104.2 278.87,-135.4 278.87,-135.4 278.87,-141.4 272.87,-147.4 266.87,-147.4"/>
<text xml:space="preserve" text-anchor="middle" x="156.59" y="-124" font-family="Microsoft YaHei" font-size="14.00" fill="#81520d">WAITING_FOR_CONFIRMATION</text>
<text xml:space="preserve" text-anchor="middle" x="156.59" y="-107.2" font-family="Microsoft YaHei" font-size="14.00" fill="#81520d">候选结论等待人工裁决</text>
</g>
<!-- domain&#45;&gt;waiting -->
<g id="edge7" class="edge">
<title>domain&#45;&gt;waiting</title>
<path fill="none" stroke="#e79616" stroke-width="2.3" d="M156.59,-197.92C156.59,-186.15 156.59,-172.19 156.59,-159.41"/>
<polygon fill="#e79616" stroke="#e79616" stroke-width="2.3" points="159.39,-159.58 156.59,-151.58 153.79,-159.58 159.39,-159.58"/>
</g>
<!-- principle -->
<g id="node13" class="node">
<title>principle</title>
<polygon fill="#fff9e8" stroke="#d6a83b" stroke-width="1.4" points="480.12,-268.4 315.06,-268.4 315.06,-184.4 486.12,-184.4 486.12,-262.4 480.12,-268.4"/>
<polyline fill="none" stroke="#d6a83b" stroke-width="1.4" points="480.12,-268.4 480.12,-262.4"/>
<polyline fill="none" stroke="#d6a83b" stroke-width="1.4" points="486.12,-262.4 480.12,-262.4"/>
<text xml:space="preserve" text-anchor="middle" x="400.59" y="-245.9" font-family="Microsoft YaHei" font-size="13.00" fill="#6f5010">分权原则</text>
<text xml:space="preserve" text-anchor="middle" x="400.59" y="-230.3" font-family="Microsoft YaHei" font-size="13.00" fill="#6f5010">LLM 只有提议权；</text>
<text xml:space="preserve" text-anchor="middle" x="400.59" y="-214.7" font-family="Microsoft YaHei" font-size="13.00" fill="#6f5010">执行、校验、持久化和状态裁决</text>
<text xml:space="preserve" text-anchor="middle" x="400.59" y="-199.1" font-family="Microsoft YaHei" font-size="13.00" fill="#6f5010">均由确定性组件负责。</text>
</g>
<!-- domain&#45;&gt;principle -->
<g id="edge14" class="edge">
<title>domain&#45;&gt;principle</title>
<path fill="none" stroke="#c79b31" stroke-width="1.5" stroke-dasharray="5,2" d="M246.02,-226.4C262.9,-226.4 301.37,-226.4 314.65,-226.4"/>
</g>
<!-- human -->
<g id="node12" class="node">
<title>human</title>
<path fill="#fff1dd" stroke="#d8922f" stroke-width="1.4" d="M234.57,-55.2C234.57,-55.2 78.62,-55.2 78.62,-55.2 72.62,-55.2 66.62,-49.2 66.62,-43.2 66.62,-43.2 66.62,-12 66.62,-12 66.62,-6 72.62,0 78.62,0 78.62,0 234.57,0 234.57,0 240.57,0 246.57,-6 246.57,-12 246.57,-12 246.57,-43.2 246.57,-43.2 246.57,-49.2 240.57,-55.2 234.57,-55.2"/>
<text xml:space="preserve" text-anchor="middle" x="156.59" y="-31.8" font-family="Microsoft YaHei" font-size="14.00" fill="#81520d">用户最终裁决</text>
<text xml:space="preserve" text-anchor="middle" x="156.59" y="-15" font-family="Microsoft YaHei" font-size="14.00" fill="#81520d">confirm / reject / continue</text>
</g>
<!-- waiting&#45;&gt;human -->
<g id="edge8" class="edge">
<title>waiting&#45;&gt;human</title>
<path fill="none" stroke="#e79616" stroke-width="2.3" d="M156.59,-91.74C156.59,-83.98 156.59,-75.37 156.59,-67.06"/>
<polygon fill="#e79616" stroke="#e79616" stroke-width="2.3" points="159.39,-67.13 156.59,-59.13 153.79,-67.13 159.39,-67.13"/>
</g>
</g>
</svg>
