<?xml version="1.0" encoding="UTF-8" standalone="no"?>
<!DOCTYPE svg PUBLIC "-//W3C//DTD SVG 1.1//EN"
 "http://www.w3.org/Graphics/SVG/1.1/DTD/svg11.dtd">
<!-- Generated by graphviz version 14.1.3 (20260303.0454)
 -->
<!-- Title: G Pages: 1 -->
<svg width="799pt" height="619pt"
 viewBox="0.00 0.00 799.00 619.00" xmlns="http://www.w3.org/2000/svg" xmlns:xlink="http://www.w3.org/1999/xlink">
<g id="graph0" class="graph" transform="scale(1 1) rotate(0) translate(25.2 594)">
<title>G</title>
<polygon fill="white" stroke="none" points="-25.2,25.2 -25.2,-594 773.89,-594 773.89,25.2 -25.2,25.2"/>
<text xml:space="preserve" text-anchor="middle" x="374.34" y="-543.2" font-family="Microsoft YaHei" font-size="24.00" fill="#174f86">第 9 课 · 从单机参考实现到企业诊断平台</text>
<!-- current -->
<g id="node1" class="node">
<title>current</title>
<path fill="#e8f3ff" stroke="#347fc4" stroke-width="2" d="M435.83,-532C435.83,-532 330.77,-532 330.77,-532 324.77,-532 318.77,-526 318.77,-520 318.77,-520 318.77,-472 318.77,-472 318.77,-466 324.77,-460 330.77,-460 330.77,-460 435.83,-460 435.83,-460 441.83,-460 447.83,-466 447.83,-472 447.83,-472 447.83,-520 447.83,-520 447.83,-526 441.83,-532 435.83,-532"/>
<text xml:space="preserve" text-anchor="middle" x="383.3" y="-508.6" font-family="Microsoft YaHei" font-size="14.00" fill="#174f86">当前 Phase 0～4</text>
<text xml:space="preserve" text-anchor="middle" x="383.3" y="-491.8" font-family="Microsoft YaHei" font-size="14.00" fill="#174f86">单机参考实现</text>
<text xml:space="preserve" text-anchor="middle" x="383.3" y="-475" font-family="Microsoft YaHei" font-size="14.00" fill="#174f86">可信诊断闭环已验证</text>
</g>
<!-- scale -->
<g id="node2" class="node">
<title>scale</title>
<path fill="#e2f6ef" stroke="#279475" stroke-width="1.4" d="M220.59,-420C220.59,-420 12,-420 12,-420 6,-420 0,-414 0,-408 0,-408 0,-360 0,-360 0,-354 6,-348 12,-348 12,-348 220.59,-348 220.59,-348 226.59,-348 232.59,-354 232.59,-360 232.59,-360 232.59,-408 232.59,-408 232.59,-414 226.59,-420 220.59,-420"/>
<text xml:space="preserve" text-anchor="middle" x="116.3" y="-396.6" font-family="Microsoft YaHei" font-size="14.00" fill="#0b6450">规模与运行形态</text>
<text xml:space="preserve" text-anchor="middle" x="116.3" y="-379.8" font-family="Microsoft YaHei" font-size="14.00" fill="#0b6450">SQLite → PostgreSQL</text>
<text xml:space="preserve" text-anchor="middle" x="116.3" y="-363" font-family="Microsoft YaHei" font-size="14.00" fill="#0b6450">进程内 Run → Worker + Checkpoint</text>
</g>
<!-- current&#45;&gt;scale -->
<g id="edge1" class="edge">
<title>current&#45;&gt;scale</title>
<path fill="none" stroke="#60666d" stroke-width="1.5" d="M317.98,-468.09C286.09,-454.95 247.11,-438.89 211.95,-424.41"/>
<polygon fill="#60666d" stroke="#60666d" stroke-width="1.5" points="213.18,-421.89 204.72,-421.43 211.05,-427.07 213.18,-421.89"/>
</g>
<!-- access -->
<g id="node3" class="node">
<title>access</title>
<path fill="#e2f6ef" stroke="#279475" stroke-width="1.4" d="M492.2,-420C492.2,-420 274.39,-420 274.39,-420 268.39,-420 262.39,-414 262.39,-408 262.39,-408 262.39,-360 262.39,-360 262.39,-354 268.39,-348 274.39,-348 274.39,-348 492.2,-348 492.2,-348 498.2,-348 504.2,-354 504.2,-360 504.2,-360 504.2,-408 504.2,-408 504.2,-414 498.2,-420 492.2,-420"/>
<text xml:space="preserve" text-anchor="middle" x="383.3" y="-396.6" font-family="Microsoft YaHei" font-size="14.00" fill="#0b6450">数据与系统接入</text>
<text xml:space="preserve" text-anchor="middle" x="383.3" y="-379.8" font-family="Microsoft YaHei" font-size="14.00" fill="#0b6450">本地日志 → 企业日志平台</text>
<text xml:space="preserve" text-anchor="middle" x="383.3" y="-363" font-family="Microsoft YaHei" font-size="14.00" fill="#0b6450">静态目录 → CMDB / Nacos / Gateway</text>
</g>
<!-- current&#45;&gt;access -->
<g id="edge2" class="edge">
<title>current&#45;&gt;access</title>
<path fill="none" stroke="#60666d" stroke-width="1.5" d="M383.3,-459.29C383.3,-450.16 383.3,-440.23 383.3,-430.69"/>
<polygon fill="#60666d" stroke="#60666d" stroke-width="1.5" points="386.1,-430.8 383.3,-422.8 380.5,-430.81 386.1,-430.8"/>
</g>
<!-- topology -->
<g id="node4" class="node">
<title>topology</title>
<path fill="#f0edff" stroke="#7762dc" stroke-width="2" d="M736.69,-420C736.69,-420 545.9,-420 545.9,-420 539.9,-420 533.9,-414 533.9,-408 533.9,-408 533.9,-360 533.9,-360 533.9,-354 539.9,-348 545.9,-348 545.9,-348 736.69,-348 736.69,-348 742.69,-348 748.69,-354 748.69,-360 748.69,-360 748.69,-408 748.69,-408 748.69,-414 742.69,-420 736.69,-420"/>
<text xml:space="preserve" text-anchor="middle" x="641.3" y="-396.6" font-family="Microsoft YaHei" font-size="14.00" fill="#3f318f">Phase 5 跨服务诊断</text>
<text xml:space="preserve" text-anchor="middle" x="641.3" y="-379.8" font-family="Microsoft YaHei" font-size="14.00" fill="#3f318f">Trace + 服务拓扑 + 下游 Evidence</text>
<text xml:space="preserve" text-anchor="middle" x="641.3" y="-363" font-family="Microsoft YaHei" font-size="14.00" fill="#3f318f">区分现象服务与根因候选</text>
</g>
<!-- current&#45;&gt;topology -->
<g id="edge3" class="edge">
<title>current&#45;&gt;topology</title>
<path fill="none" stroke="#e79616" stroke-width="2.3" d="M448.73,-467.1C478.37,-454.46 513.97,-439.29 546.46,-425.43"/>
<polygon fill="#e79616" stroke="#e79616" stroke-width="2.3" points="547.42,-428.07 553.68,-422.35 545.23,-422.92 547.42,-428.07"/>
</g>
<!-- governance -->
<g id="node5" class="node">
<title>governance</title>
<path fill="#fff1dd" stroke="#d8922f" stroke-width="1.4" d="M457.62,-308C457.62,-308 308.97,-308 308.97,-308 302.97,-308 296.97,-302 296.97,-296 296.97,-296 296.97,-248 296.97,-248 296.97,-242 302.97,-236 308.97,-236 308.97,-236 457.62,-236 457.62,-236 463.62,-236 469.62,-242 469.62,-248 469.62,-248 469.62,-296 469.62,-296 469.62,-302 463.62,-308 457.62,-308"/>
<text xml:space="preserve" text-anchor="middle" x="383.3" y="-284.6" font-family="Microsoft YaHei" font-size="14.00" fill="#81520d">安全与模型治理</text>
<text xml:space="preserve" text-anchor="middle" x="383.3" y="-267.8" font-family="Microsoft YaHei" font-size="14.00" fill="#81520d">SSO / RBAC / 多租户隔离</text>
<text xml:space="preserve" text-anchor="middle" x="383.3" y="-251" font-family="Microsoft YaHei" font-size="14.00" fill="#81520d">模型网关 / 配额 / 成本 / 降级</text>
</g>
<!-- scale&#45;&gt;governance -->
<g id="edge4" class="edge">
<title>scale&#45;&gt;governance</title>
<path fill="none" stroke="#60666d" stroke-width="1.5" d="M202.61,-347.44C229.72,-336.27 259.8,-323.88 287.52,-312.46"/>
<polygon fill="#60666d" stroke="#60666d" stroke-width="1.5" points="288.39,-315.13 294.72,-309.49 286.25,-309.95 288.39,-315.13"/>
</g>
<!-- access&#45;&gt;governance -->
<g id="edge5" class="edge">
<title>access&#45;&gt;governance</title>
<path fill="none" stroke="#60666d" stroke-width="1.5" d="M383.3,-347.59C383.3,-338.27 383.3,-328.08 383.3,-318.31"/>
<polygon fill="#60666d" stroke="#60666d" stroke-width="1.5" points="386.1,-318.61 383.3,-310.61 380.5,-318.61 386.1,-318.61"/>
</g>
<!-- quality -->
<g id="node6" class="node">
<title>quality</title>
<path fill="#edf7e5" stroke="#6f9e3b" stroke-width="1.4" d="M690.94,-308C690.94,-308 537.65,-308 537.65,-308 531.65,-308 525.65,-302 525.65,-296 525.65,-296 525.65,-248 525.65,-248 525.65,-242 531.65,-236 537.65,-236 537.65,-236 690.94,-236 690.94,-236 696.94,-236 702.94,-242 702.94,-248 702.94,-248 702.94,-296 702.94,-296 702.94,-302 696.94,-308 690.94,-308"/>
<text xml:space="preserve" text-anchor="middle" x="614.3" y="-284.6" font-family="Microsoft YaHei" font-size="14.00" fill="#315f13">质量与运营</text>
<text xml:space="preserve" text-anchor="middle" x="614.3" y="-267.8" font-family="Microsoft YaHei" font-size="14.00" fill="#315f13">版本化评测 / 发布门禁 / SLA</text>
<text xml:space="preserve" text-anchor="middle" x="614.3" y="-251" font-family="Microsoft YaHei" font-size="14.00" fill="#315f13">Trace UI / 工单 / 知识运营</text>
</g>
<!-- topology&#45;&gt;quality -->
<g id="edge6" class="edge">
<title>topology&#45;&gt;quality</title>
<path fill="none" stroke="#60666d" stroke-width="1.5" d="M632.53,-347.29C630.27,-338.07 627.8,-328.02 625.43,-318.38"/>
<polygon fill="#60666d" stroke="#60666d" stroke-width="1.5" points="628.18,-317.84 623.56,-310.74 622.75,-319.18 628.18,-317.84"/>
</g>
<!-- enterprise -->
<g id="node7" class="node">
<title>enterprise</title>
<path fill="#edf7e5" stroke="#6f9e3b" stroke-width="2" d="M569.33,-196C569.33,-196 401.27,-196 401.27,-196 395.27,-196 389.27,-190 389.27,-184 389.27,-184 389.27,-136 389.27,-136 389.27,-130 395.27,-124 401.27,-124 401.27,-124 569.33,-124 569.33,-124 575.33,-124 581.33,-130 581.33,-136 581.33,-136 581.33,-184 581.33,-184 581.33,-190 575.33,-196 569.33,-196"/>
<text xml:space="preserve" text-anchor="middle" x="485.3" y="-172.6" font-family="Microsoft YaHei" font-size="14.00" fill="#315f13">企业级智能诊断平台</text>
<text xml:space="preserve" text-anchor="middle" x="485.3" y="-155.8" font-family="Microsoft YaHei" font-size="14.00" fill="#315f13">可扩展、可治理、可观测、可运营</text>
<text xml:space="preserve" text-anchor="middle" x="485.3" y="-139" font-family="Microsoft YaHei" font-size="14.00" fill="#315f13">仍由人工确认最终事实</text>
</g>
<!-- governance&#45;&gt;enterprise -->
<g id="edge7" class="edge">
<title>governance&#45;&gt;enterprise</title>
<path fill="none" stroke="#60666d" stroke-width="1.5" d="M416.13,-235.59C425.41,-225.58 435.61,-214.58 445.26,-204.17"/>
<polygon fill="#60666d" stroke="#60666d" stroke-width="1.5" points="447.24,-206.16 450.63,-198.39 443.14,-202.35 447.24,-206.16"/>
</g>
<!-- quality&#45;&gt;enterprise -->
<g id="edge8" class="edge">
<title>quality&#45;&gt;enterprise</title>
<path fill="none" stroke="#e79616" stroke-width="2.3" d="M572.77,-235.59C560.92,-225.49 547.88,-214.37 535.57,-203.87"/>
<polygon fill="#e79616" stroke="#e79616" stroke-width="2.3" points="537.74,-202.04 529.83,-198.98 534.11,-206.3 537.74,-202.04"/>
</g>
<!-- caution -->
<g id="node8" class="node">
<title>caution</title>
<polygon fill="#fff9e8" stroke="#d6a83b" stroke-width="1.4" points="559.95,-84 404.64,-84 404.64,0 565.95,0 565.95,-78 559.95,-84"/>
<polyline fill="none" stroke="#d6a83b" stroke-width="1.4" points="559.95,-84 559.95,-78"/>
<polyline fill="none" stroke="#d6a83b" stroke-width="1.4" points="565.95,-78 559.95,-78"/>
<text xml:space="preserve" text-anchor="middle" x="485.3" y="-61.5" font-family="Microsoft YaHei" font-size="13.00" fill="#6f5010">演进原则</text>
<text xml:space="preserve" text-anchor="middle" x="485.3" y="-45.9" font-family="Microsoft YaHei" font-size="13.00" fill="#6f5010">先扩展确定性事实与运行能力</text>
<text xml:space="preserve" text-anchor="middle" x="485.3" y="-30.3" font-family="Microsoft YaHei" font-size="13.00" fill="#6f5010">再扩大 Agent 调查范围；</text>
<text xml:space="preserve" text-anchor="middle" x="485.3" y="-14.7" font-family="Microsoft YaHei" font-size="13.00" fill="#6f5010">协议联通不等于生产可用。</text>
</g>
<!-- enterprise&#45;&gt;caution -->
<g id="edge9" class="edge">
<title>enterprise&#45;&gt;caution</title>
<path fill="none" stroke="#c79b31" stroke-width="1.5" stroke-dasharray="5,2" d="M485.3,-123.25C485.3,-111 485.3,-97.19 485.3,-84.53"/>
</g>
</g>
</svg>
