<?xml version="1.0" encoding="UTF-8" standalone="no"?>
<!DOCTYPE svg PUBLIC "-//W3C//DTD SVG 1.1//EN"
 "http://www.w3.org/Graphics/SVG/1.1/DTD/svg11.dtd">
<!-- Generated by graphviz version 14.1.3 (20260303.0454)
 -->
<!-- Title: G Pages: 1 -->
<svg width="1384pt" height="191pt"
 viewBox="0.00 0.00 1384.00 191.00" xmlns="http://www.w3.org/2000/svg" xmlns:xlink="http://www.w3.org/1999/xlink">
<g id="graph0" class="graph" transform="scale(1 1) rotate(0) translate(25.2 166)">
<title>G</title>
<polygon fill="white" stroke="none" points="-25.2,25.2 -25.2,-166 1358.83,-166 1358.83,25.2 -25.2,25.2"/>
<text xml:space="preserve" text-anchor="middle" x="666.82" y="-115.2" font-family="Microsoft YaHei" font-size="24.00" fill="#174f86">第 4 课 · Evidence 引用如何进入人工闭环</text>
<!-- evidence -->
<g id="node1" class="node">
<title>evidence</title>
<path fill="#e2f6ef" stroke="#279475" stroke-width="2" d="M176.31,-95C176.31,-95 12,-95 12,-95 6,-95 0,-89 0,-83 0,-83 0,-49.4 0,-49.4 0,-43.4 6,-37.4 12,-37.4 12,-37.4 176.31,-37.4 176.31,-37.4 182.31,-37.4 188.31,-43.4 188.31,-49.4 188.31,-49.4 188.31,-83 188.31,-83 188.31,-89 182.31,-95 176.31,-95"/>
<text xml:space="preserve" text-anchor="middle" x="94.15" y="-70.7" font-family="Microsoft YaHei" font-size="15.00" fill="#0b6450">正式 Evidence ID</text>
<text xml:space="preserve" text-anchor="middle" x="94.15" y="-52.7" font-family="Microsoft YaHei" font-size="15.00" fill="#0b6450">已落库且属于当前 Diagnosis</text>
</g>
<!-- model -->
<g id="node2" class="node">
<title>model</title>
<path fill="#fff0eb" stroke="#ef7044" stroke-width="1.4" d="M473.21,-95C473.21,-95 237.31,-95 237.31,-95 231.31,-95 225.31,-89 225.31,-83 225.31,-83 225.31,-49.4 225.31,-49.4 225.31,-43.4 231.31,-37.4 237.31,-37.4 237.31,-37.4 473.21,-37.4 473.21,-37.4 479.21,-37.4 485.21,-43.4 485.21,-49.4 485.21,-49.4 485.21,-83 485.21,-83 485.21,-89 479.21,-95 473.21,-95"/>
<text xml:space="preserve" text-anchor="middle" x="355.26" y="-70.7" font-family="Microsoft YaHei" font-size="15.00" fill="#8b3218">候选结论</text>
<text xml:space="preserve" text-anchor="middle" x="355.26" y="-52.7" font-family="Microsoft YaHei" font-size="15.00" fill="#8b3218">facts / root causes / recommendations</text>
</g>
<!-- evidence&#45;&gt;model -->
<g id="edge1" class="edge">
<title>evidence&#45;&gt;model</title>
<path fill="none" stroke="#e79616" stroke-width="2.3" d="M189.06,-66.2C197.03,-66.2 205.19,-66.2 213.41,-66.2"/>
<polygon fill="#e79616" stroke="#e79616" stroke-width="2.3" points="213.17,-69 221.17,-66.2 213.17,-63.4 213.17,-69"/>
</g>
<!-- citation -->
<g id="node3" class="node">
<title>citation</title>
<path fill="#e8f3ff" stroke="#347fc4" stroke-width="1.4" d="M679.77,-104C679.77,-104 534.21,-104 534.21,-104 528.21,-104 522.21,-98 522.21,-92 522.21,-92 522.21,-40.4 522.21,-40.4 522.21,-34.4 528.21,-28.4 534.21,-28.4 534.21,-28.4 679.77,-28.4 679.77,-28.4 685.77,-28.4 691.77,-34.4 691.77,-40.4 691.77,-40.4 691.77,-92 691.77,-92 691.77,-98 685.77,-104 679.77,-104"/>
<text xml:space="preserve" text-anchor="middle" x="606.99" y="-79.7" font-family="Microsoft YaHei" font-size="15.00" fill="#174f86">CitationPolicy</text>
<text xml:space="preserve" text-anchor="middle" x="606.99" y="-61.7" font-family="Microsoft YaHei" font-size="15.00" fill="#174f86">归属、可信等级、验证建议</text>
<text xml:space="preserve" text-anchor="middle" x="606.99" y="-43.7" font-family="Microsoft YaHei" font-size="15.00" fill="#174f86">模型不得输出 confirmed</text>
</g>
<!-- model&#45;&gt;citation -->
<g id="edge2" class="edge">
<title>model&#45;&gt;citation</title>
<path fill="none" stroke="#e79616" stroke-width="2.3" d="M485.88,-66.2C494.12,-66.2 502.32,-66.2 510.36,-66.2"/>
<polygon fill="#e79616" stroke="#e79616" stroke-width="2.3" points="510.11,-69 518.11,-66.2 510.11,-63.4 510.11,-69"/>
</g>
<!-- report -->
<g id="node4" class="node">
<title>report</title>
<path fill="#edf7e5" stroke="#6f9e3b" stroke-width="1.4" d="M892.38,-95C892.38,-95 740.77,-95 740.77,-95 734.77,-95 728.77,-89 728.77,-83 728.77,-83 728.77,-49.4 728.77,-49.4 728.77,-43.4 734.77,-37.4 740.77,-37.4 740.77,-37.4 892.38,-37.4 892.38,-37.4 898.38,-37.4 904.38,-43.4 904.38,-49.4 904.38,-49.4 904.38,-83 904.38,-83 904.38,-89 898.38,-95 892.38,-95"/>
<text xml:space="preserve" text-anchor="middle" x="816.58" y="-70.7" font-family="Microsoft YaHei" font-size="15.00" fill="#315f13">Report + Trace + Audit</text>
<text xml:space="preserve" text-anchor="middle" x="816.58" y="-52.7" font-family="Microsoft YaHei" font-size="15.00" fill="#315f13">事实、过程、动作分别保留</text>
</g>
<!-- citation&#45;&gt;report -->
<g id="edge3" class="edge">
<title>citation&#45;&gt;report</title>
<path fill="none" stroke="#e79616" stroke-width="2.3" d="M692.43,-66.2C700.44,-66.2 708.61,-66.2 716.74,-66.2"/>
<polygon fill="#e79616" stroke="#e79616" stroke-width="2.3" points="716.7,-69 724.7,-66.2 716.7,-63.4 716.7,-69"/>
</g>
<!-- human -->
<g id="node5" class="node">
<title>human</title>
<path fill="#fff1dd" stroke="#d8922f" stroke-width="1.4" d="M1119.71,-95C1119.71,-95 953.38,-95 953.38,-95 947.38,-95 941.38,-89 941.38,-83 941.38,-83 941.38,-49.4 941.38,-49.4 941.38,-43.4 947.38,-37.4 953.38,-37.4 953.38,-37.4 1119.71,-37.4 1119.71,-37.4 1125.71,-37.4 1131.71,-43.4 1131.71,-49.4 1131.71,-49.4 1131.71,-83 1131.71,-83 1131.71,-89 1125.71,-95 1119.71,-95"/>
<text xml:space="preserve" text-anchor="middle" x="1036.54" y="-70.7" font-family="Microsoft YaHei" font-size="15.00" fill="#81520d">Confirmation 追加记录</text>
<text xml:space="preserve" text-anchor="middle" x="1036.54" y="-52.7" font-family="Microsoft YaHei" font-size="15.00" fill="#81520d">confirm / reject / continue</text>
</g>
<!-- report&#45;&gt;human -->
<g id="edge4" class="edge">
<title>report&#45;&gt;human</title>
<path fill="none" stroke="#e79616" stroke-width="2.3" d="M904.98,-66.2C913.12,-66.2 921.43,-66.2 929.71,-66.2"/>
<polygon fill="#e79616" stroke="#e79616" stroke-width="2.3" points="929.5,-69 937.5,-66.2 929.5,-63.4 929.5,-69"/>
</g>
<!-- human&#45;&gt;evidence -->
<g id="edge6" class="edge">
<title>human&#45;&gt;evidence</title>
<path fill="none" stroke="#7762dc" stroke-width="1.5" stroke-dasharray="5,2" d="M947.69,-36.73C923.8,-28.71 904.38,-22.2 904.38,-22.2 904.38,-22.2 691.77,0 691.77,0 691.77,0 522.21,0 522.21,0 522.21,0 225.31,-22.2 225.31,-22.2 225.31,-22.2 211.37,-26.91 192.61,-33.26"/>
<polygon fill="#7762dc" stroke="#7762dc" stroke-width="1.5" points="191.89,-30.54 185.2,-35.76 193.68,-35.85 191.89,-30.54"/>
<text xml:space="preserve" text-anchor="middle" x="606.99" y="-3.3" font-family="Microsoft YaHei" font-size="11.00">补充信息形成新 Evidence</text>
</g>
<!-- knowledge -->
<g id="node6" class="node">
<title>knowledge</title>
<path fill="#edf7e5" stroke="#6f9e3b" stroke-width="1.4" d="M1321.63,-95C1321.63,-95 1180.71,-95 1180.71,-95 1174.71,-95 1168.71,-89 1168.71,-83 1168.71,-83 1168.71,-49.4 1168.71,-49.4 1168.71,-43.4 1174.71,-37.4 1180.71,-37.4 1180.71,-37.4 1321.63,-37.4 1321.63,-37.4 1327.63,-37.4 1333.63,-43.4 1333.63,-49.4 1333.63,-49.4 1333.63,-83 1333.63,-83 1333.63,-89 1327.63,-95 1321.63,-95"/>
<text xml:space="preserve" text-anchor="middle" x="1251.17" y="-70.7" font-family="Microsoft YaHei" font-size="15.00" fill="#315f13">人工确认后</text>
<text xml:space="preserve" text-anchor="middle" x="1251.17" y="-52.7" font-family="Microsoft YaHei" font-size="15.00" fill="#315f13">Knowledge candidate</text>
</g>
<!-- human&#45;&gt;knowledge -->
<g id="edge5" class="edge">
<title>human&#45;&gt;knowledge</title>
<path fill="none" stroke="#e79616" stroke-width="2.3" d="M1132.35,-66.2C1140.48,-66.2 1148.7,-66.2 1156.82,-66.2"/>
<polygon fill="#e79616" stroke="#e79616" stroke-width="2.3" points="1156.73,-69 1164.73,-66.2 1156.73,-63.4 1156.73,-69"/>
</g>
</g>
</svg>
